<?xml version="1.0" encoding="utf-8"?>
<!-- Generator: Adobe Illustrator 24.0.0, SVG Export Plug-In . SVG Version: 6.00 Build 0)  -->
<svg version="1.1" id="Calque_1" xmlns="http://www.w3.org/2000/svg" xmlns:xlink="http://www.w3.org/1999/xlink" x="0px" y="0px"
	 viewBox="0 0 43 40" style="enable-background:new 0 0 43 40;" xml:space="preserve">
<style type="text/css">
	.st0{fill:#2684FF;}
	.st1{fill:url(#SVGID_1_);}
	.st2{fill:url(#SVGID_2_);}
</style>
<path class="st0" d="M40.2,18.9L23.1,1.8l-1.7-1.7L8.6,13l-5.9,5.9c-0.6,0.6-0.6,1.6,0,2.2l11.8,11.8l7,7L34.4,27l0.2-0.2l5.7-5.7
	C40.9,20.5,40.9,19.5,40.2,18.9C40.2,18.9,40.2,18.9,40.2,18.9L40.2,18.9z M21.5,25.9L15.6,20l5.9-5.9l5.9,5.9L21.5,25.9z"/>
<linearGradient id="SVGID_1_" gradientUnits="userSpaceOnUse" x1="-885.1089" y1="-81.9081" x2="-885.8527" y2="-81.1644" gradientTransform="matrix(11.028 0 0 11.028 9781.4316 911.4677)">
	<stop  offset="0.18" style="stop-color:#0052CC"/>
	<stop  offset="1" style="stop-color:#2684FF"/>
</linearGradient>
<path class="st1" d="M21.5,14.1c-3.8-3.8-3.9-10.1,0-13.9L8.6,13l7,7L21.5,14.1z"/>
<linearGradient id="SVGID_2_" gradientUnits="userSpaceOnUse" x1="-884.9119" y1="-79.7714" x2="-884.1696" y2="-80.5136" gradientTransform="matrix(11.028 0 0 11.028 9781.4316 911.4677)">
	<stop  offset="0.18" style="stop-color:#0052CC"/>
	<stop  offset="1" style="stop-color:#2684FF"/>
</linearGradient>
<path class="st2" d="M27.4,20l-5.9,5.9c3.9,3.9,3.9,10.1,0,14L34.4,27L27.4,20z"/>
</svg>
